<svg width="18" height="18" viewBox="0 0 18 18" fill="none" xmlns="http://www.w3.org/2000/svg">
<g clip-path="url(#clip0_938_42)">
<path d="M8.99999 18C4.03874 18 -8.23966e-06 13.9613 -8.0228e-06 9C-7.80593e-06 4.03875 4.03874 1.76539e-07 8.99999 3.93402e-07C13.9612 6.10266e-07 18 4.03875 18 9C18 13.9613 13.9612 18 8.99999 18ZM16.5898 10.2313C16.3271 10.1486 14.2121 9.51638 11.8018 9.90281C12.807 12.6658 13.2171 14.9158 13.2958 15.3838C15.021 14.2178 16.2478 12.3688 16.5921 10.2313L16.5898 10.2313ZM12.0037 16.0875C11.889 15.4125 11.4412 13.0635 10.3612 10.26L10.3117 10.2752C5.96924 11.7866 4.41674 14.7938 4.28174 15.075C5.57943 16.0937 7.22193 16.6995 8.99943 16.6995C10.0642 16.6995 11.0767 16.4818 11.9992 16.0892L12.0037 16.0875ZM3.28893 14.1525C3.46274 13.8527 5.57268 10.3613 9.53774 9.07875C9.63899 9.045 9.74024 9.01575 9.84149 8.98875C9.6463 8.55 9.43649 8.1135 9.21768 7.68375C5.37749 8.83125 1.65487 8.78231 1.31737 8.775L1.31455 9.009C1.31455 10.9839 2.06324 12.7867 3.29005 14.1503L3.28893 14.1525ZM1.47374 7.43625C1.81855 7.44244 4.98599 7.45594 8.58149 6.50025C7.30799 4.23675 5.9338 2.33156 5.73131 2.05425C3.5803 3.06675 1.9738 5.04675 1.4743 7.43175L1.47374 7.43625ZM7.19999 1.539C7.41149 1.82419 8.80874 3.72431 10.0665 6.039C12.8002 5.01525 13.959 3.45881 14.0962 3.2625C12.7389 2.05481 10.9536 1.323 8.99999 1.323C8.38124 1.323 7.77768 1.39781 7.19999 1.53675L7.19999 1.539ZM14.9512 4.15125C14.7876 4.36894 13.5 6.021 10.6582 7.18144C10.8382 7.54875 11.0109 7.92 11.1684 8.29575C11.2286 8.43075 11.2809 8.56575 11.3332 8.69344C13.8909 8.37113 16.4334 8.88863 16.6882 8.94094C16.6731 7.12575 16.0284 5.46075 14.9557 4.15575L14.9512 4.15125Z" fill="white"/>
</g>
<defs>
<clipPath id="clip0_938_42">
<rect width="18" height="18" fill="white"/>
</clipPath>
</defs>
</svg>
