<svg width="18" height="18" viewBox="0 0 18 18" fill="none" xmlns="http://www.w3.org/2000/svg">
<g clip-path="url(#clip0_938_48)">
<path d="M8.99999 0.222731C4.02749 0.222731 -7.80557e-06 4.25248 -8.02282e-06 9.22273C-8.19668e-06 13.2002 2.57849 16.5729 6.15374 17.7615C6.60374 17.8464 6.76855 17.568 6.76855 17.3289C6.76855 17.1152 6.76124 16.5487 6.7573 15.7989C4.25362 16.3417 3.72599 14.5912 3.72599 14.5912C3.31649 13.5523 2.72474 13.275 2.72474 13.275C1.90968 12.717 2.78774 12.7282 2.78774 12.7282C3.69168 12.7912 4.16643 13.6552 4.16643 13.6552C4.96912 15.0317 6.27299 14.634 6.78768 14.4039C6.86868 13.8217 7.10043 13.4252 7.35749 13.2002C5.35893 12.9752 3.25799 12.2012 3.25799 8.75248C3.25799 7.76979 3.60674 6.96767 4.18443 6.33767C4.08318 6.11042 3.77943 5.19523 4.26318 3.95548C4.26318 3.95548 5.01693 3.71417 6.73818 4.87798C7.45818 4.67773 8.22318 4.57873 8.98818 4.57423C9.75318 4.57873 10.5182 4.67773 11.2382 4.87798C12.9482 3.71417 13.7019 3.95548 13.7019 3.95548C14.1857 5.19523 13.8819 6.11042 13.7919 6.33767C14.3657 6.96767 14.7144 7.77036 14.7144 8.75248C14.7144 12.2102 12.6107 12.9712 10.6082 13.1923C10.9232 13.4623 11.2157 14.0141 11.2157 14.8573C11.2157 16.0616 11.2044 17.0291 11.2044 17.3216C11.2044 17.5579 11.3619 17.8391 11.8232 17.7491C15.4237 16.5684 18 13.1934 18 9.22217C18 4.25192 13.9702 0.222169 8.99999 0.222168L8.99999 0.222731Z" fill="white"/>
</g>
<defs>
<clipPath id="clip0_938_48">
<rect width="18" height="18" fill="white"/>
</clipPath>
</defs>
</svg>
