<svg width="18" height="18" viewBox="0 0 18 18" fill="none" xmlns="http://www.w3.org/2000/svg">
<g clip-path="url(#clip0_938_39)">
<path d="M9 3.93402e-07C6.55481 2.8652e-07 6.24994 0.0112503 5.28975 0.0540002C4.33125 0.0990002 3.67875 0.24975 3.105 0.4725C2.51325 0.702 2.01094 1.01025 1.51031 1.51031C1.00969 2.01038 0.700875 2.51213 0.4725 3.105C0.24975 3.67875 0.0984373 4.33125 0.0539998 5.28975C0.00899973 6.24994 -2.8652e-07 6.55481 -3.93402e-07 9C-5.00285e-07 11.4452 0.0112495 11.7501 0.0539994 12.7103C0.0989994 13.6682 0.249749 14.3212 0.472499 14.895C0.701999 15.4862 1.01025 15.9891 1.51031 16.4897C2.01037 16.9892 2.51212 17.2991 3.105 17.5275C3.67931 17.7497 4.33181 17.9016 5.28975 17.946C6.24994 17.991 6.55481 18 9 18C11.4452 18 11.7501 17.9888 12.7103 17.946C13.6682 17.901 14.3212 17.7497 14.895 17.5275C15.4862 17.298 15.9891 16.9892 16.4897 16.4897C16.9892 15.9896 17.2991 15.4884 17.5275 14.895C17.7497 14.3213 17.9016 13.6682 17.946 12.7103C17.991 11.7501 18 11.4452 18 9C18 6.55481 17.9888 6.24994 17.946 5.28975C17.901 4.33181 17.7497 3.67819 17.5275 3.105C17.298 2.51325 16.9892 2.01094 16.4897 1.51031C15.9896 1.01025 15.4884 0.700876 14.895 0.472501C14.3212 0.249751 13.6682 0.0984381 12.7103 0.0540006C11.7501 0.00900052 11.4452 5.00285e-07 9 3.93402e-07V3.93402e-07ZM9 1.62C11.4024 1.62 11.6887 1.63181 12.6377 1.67344C13.5152 1.7145 13.9916 1.86019 14.3078 1.9845C14.7291 2.14706 15.0277 2.34225 15.3444 2.65669C15.6589 2.97169 15.8535 3.27094 16.0166 3.69225C16.1398 4.00894 16.2866 4.48481 16.3266 5.36231C16.3693 6.31181 16.3789 6.597 16.3789 9C16.3789 11.403 16.3676 11.6888 16.3232 12.6377C16.2776 13.5152 16.1314 13.9916 16.0076 14.3078C15.8394 14.7291 15.6482 15.0278 15.3332 15.3444C15.0187 15.6589 14.715 15.8535 14.2982 16.0166C13.9832 16.1398 13.4994 16.2866 12.6219 16.3266C11.6662 16.3693 11.385 16.3789 8.9775 16.3789C6.56944 16.3789 6.28819 16.3676 5.33306 16.3232C4.455 16.2776 3.97125 16.1314 3.65625 16.0076C3.22931 15.8394 2.93625 15.6482 2.62181 15.3332C2.30625 15.0188 2.10431 14.715 1.94681 14.2982C1.82306 13.9832 1.67737 13.4994 1.63181 12.6219C1.59806 11.6769 1.58625 11.385 1.58625 8.98875C1.58625 6.59194 1.59806 6.29944 1.63181 5.34319C1.67737 4.46569 1.82306 3.9825 1.94681 3.6675C2.10431 3.24 2.30625 2.9475 2.62181 2.63194C2.93625 2.3175 3.22931 2.115 3.65625 1.95863C3.97125 1.83431 4.44431 1.68806 5.32181 1.64306C6.27806 1.60931 6.55931 1.59806 8.96625 1.59806L9 1.62056L9 1.62ZM9 4.3785C6.44625 4.3785 4.3785 6.4485 4.3785 9C4.3785 11.5538 6.4485 13.6215 9 13.6215C11.5537 13.6215 13.6215 11.5515 13.6215 9C13.6215 6.44625 11.5515 4.3785 9 4.3785ZM9 11.9998C7.34231 11.9998 6.00019 10.6571 6.00019 9C6.00019 7.34288 7.34287 6.00019 9 6.00019C10.6571 6.00019 11.9998 7.34288 11.9998 9C11.9998 10.6571 10.6571 11.9998 9 11.9998ZM14.8843 4.19625C14.8843 4.7925 14.4 5.27625 13.8043 5.27625C13.2081 5.27625 12.7243 4.79194 12.7243 4.19625C12.7243 3.60056 13.2086 3.11681 13.8043 3.11681C14.3989 3.11625 14.8843 3.60056 14.8843 4.19625Z" fill="white"/>
</g>
<defs>
<clipPath id="clip0_938_39">
<rect width="18" height="18" fill="white"/>
</clipPath>
</defs>
</svg>
