<svg width="18" height="18" viewBox="0 0 18 18" fill="none" xmlns="http://www.w3.org/2000/svg">
<g clip-path="url(#clip0_938_45)">
<path d="M15.3354 15.3388L12.6697 15.3388L12.6697 11.1623C12.6697 10.1661 12.6495 8.88469 11.2809 8.88469C9.89099 8.88469 9.67893 9.96863 9.67893 11.0891L9.67893 15.3394L7.01324 15.3394L7.01324 6.75056L9.57374 6.75056L9.57374 7.92113L9.60805 7.92113C9.9658 7.24613 10.836 6.53344 12.1354 6.53344C14.8359 6.53344 15.3354 8.31094 15.3354 10.6245L15.3354 15.3388ZM4.00274 5.57494C3.14493 5.57494 2.4553 4.88025 2.4553 4.02637C2.4553 3.17306 3.14549 2.47894 4.00274 2.47894C4.85774 2.47894 5.55074 3.1725 5.55074 4.02638C5.55074 4.88081 4.85718 5.57494 4.00274 5.57494ZM5.33924 15.3388L2.66624 15.3388L2.66624 6.75L5.33924 6.75L5.33924 15.3388ZM16.6686 7.28606e-07L1.32805 5.80515e-08C0.593992 2.59646e-08 -7.65477e-06 0.5805 -7.68607e-06 1.29656L-8.3595e-06 16.7029C-8.39085e-06 17.4201 0.593992 17.9994 1.32805 17.9994L16.6663 17.9994C17.3998 17.9994 18 17.4195 18 16.7029L18 1.29656C18 0.580501 17.3998 7.6057e-07 16.6663 7.28508e-07L16.6686 7.28606e-07V7.28606e-07Z" fill="white"/>
</g>
<defs>
<clipPath id="clip0_938_45">
<rect width="18" height="18" fill="white"/>
</clipPath>
</defs>
</svg>
