<svg width="18" height="18" viewBox="0 0 18 18" fill="none" xmlns="http://www.w3.org/2000/svg">
<g clip-path="url(#clip0_938_38)">
<path d="M17.9657 3.42677C17.3019 3.71871 16.5932 3.91727 15.8468 4.00783C16.6073 3.54939 17.1922 2.82714 17.469 1.96539C16.7558 2.38164 15.9654 2.68483 15.1239 2.85358C14.4517 2.13414 13.4944 1.68414 12.4307 1.68414C10.3928 1.68414 8.74069 3.33621 8.74069 5.37189C8.74069 5.66439 8.77444 5.94564 8.83575 6.21508C5.76844 6.07052 3.04931 4.59733 1.23019 2.37039C0.910125 2.91208 0.730687 3.54096 0.730687 4.22664C0.730687 5.50914 1.38319 6.63639 2.3715 7.29846C1.76625 7.27877 1.197 7.11227 0.700312 6.83664L0.700312 6.8822C0.700312 8.67095 1.96987 10.1627 3.65962 10.5025C3.34969 10.5857 3.02287 10.6307 2.68762 10.6307C2.45194 10.6307 2.22637 10.6082 2.00081 10.566C2.47387 12.0308 3.83456 13.099 5.454 13.1288C4.194 14.1182 2.59706 14.7077 0.877499 14.7077C0.584999 14.7077 0.293062 14.6903 -5.6709e-07 14.6576C1.64194 15.7033 3.57581 16.3142 5.66775 16.3142C12.4582 16.3142 16.1668 10.692 16.1668 5.82471C16.1668 5.66777 16.1668 5.50971 16.1556 5.35221C16.8761 4.83527 17.5056 4.18221 18.0006 3.44139L17.9651 3.42621L17.9657 3.42677Z" fill="white"/>
</g>
<defs>
<clipPath id="clip0_938_38">
<rect width="18" height="18" fill="white"/>
</clipPath>
</defs>
</svg>
